<?xml version="1.0" standalone="no"?>
<!DOCTYPE svg PUBLIC "-//W3C//DTD SVG 20010904//EN"
 "http://www.w3.org/TR/2001/REC-SVG-20010904/DTD/svg10.dtd">
<svg version="1.0" xmlns="http://www.w3.org/2000/svg"
 width="968.000000pt" height="915.000000pt" viewBox="0 0 968.000000 915.000000"
 preserveAspectRatio="xMidYMid meet">

<g transform="translate(0.000000,915.000000) scale(0.100000,-0.100000)"
fill="#000000" stroke="none">
<path d="M5820 6613 c-62 -22 -142 -105 -163 -167 -17 -49 -21 -150 -9 -193 7
-21 10 -20 67 24 32 24 85 58 116 74 55 27 187 69 220 69 9 0 43 -40 78 -90
49 -71 67 -90 86 -90 22 0 24 3 19 33 -20 110 -35 171 -49 201 -22 47 -77 102
-128 128 -56 28 -174 34 -237 11z"/>
<path d="M6264 5958 c-78 -126 -152 -155 -256 -103 -49 25 -50 25 -121 9 -101
-23 -170 -58 -232 -118 -52 -51 -55 -57 -100 -202 -26 -82 -69 -219 -97 -304
-78 -241 -76 -356 7 -480 19 -29 35 -54 35 -56 0 -2 -33 -13 -72 -24 -242 -70
-293 -89 -325 -122 -63 -65 -80 -156 -44 -233 10 -22 172 -223 359 -447 l340
-407 -49 -126 c-27 -69 -49 -137 -49 -153 1 -44 36 -110 72 -132 66 -40 135
-38 188 6 35 30 170 281 170 316 0 37 -47 169 -69 192 -18 20 -411 609 -431
646 -8 15 0 16 101 12 179 -7 355 34 465 108 46 30 49 31 125 24 44 -3 79 -9
79 -11 0 -3 -50 -260 -110 -571 -72 -370 -117 -580 -130 -604 -44 -82 -143
-354 -143 -394 -1 -85 69 -154 155 -154 52 0 92 16 120 46 9 11 46 76 82 145
69 132 75 156 54 233 -11 42 -7 59 91 402 57 198 107 363 111 368 5 4 11 -42
15 -103 4 -61 11 -111 16 -111 12 0 11 78 -1 197 l-11 98 63 218 63 218 55 22
c65 26 100 71 100 129 0 36 -8 64 -59 198 -12 30 -21 58 -21 62 0 5 16 8 35 8
50 0 90 23 106 62 23 54 17 400 -9 564 -30 189 -69 351 -93 390 -28 46 -100
96 -211 148 -110 52 -201 76 -286 76 l-62 0 -26 -42z m-396 -795 c26 -98 42
-244 34 -303 -7 -42 -9 -45 -56 -59 l-49 -15 -34 39 c-19 22 -46 59 -59 81
l-25 42 78 146 c42 80 80 146 83 146 4 0 16 -35 28 -77z m205 -422 c10 -17 24
-48 32 -71 l14 -40 -64 -51 -64 -50 19 -32 c43 -70 14 -174 -55 -203 -45 -18
-79 -18 -122 3 -44 20 -71 63 -78 123 -3 25 -15 68 -25 95 -30 76 -27 127 11
169 36 42 41 44 188 66 64 10 118 18 121 19 3 0 14 -12 23 -28z"/>
<path d="M3186 4342 c-84 -175 -156 -489 -156 -682 0 -100 16 -47 28 93 18
205 65 394 146 579 21 49 4 58 -18 10z"/>
<path d="M4540 2419 c-369 -16 -771 -55 -1149 -110 -302 -44 -682 -116 -698
-132 -16 -17 10 -15 98 4 264 58 678 123 1004 159 1032 111 2011 84 2905 -80
141 -26 409 -83 453 -96 9 -3 17 -1 17 5 0 12 -35 22 -234 66 -701 154 -1563
220 -2396 184z"/>
<path d="M4540 2149 c-369 -16 -771 -55 -1149 -110 -302 -44 -682 -116 -698
-132 -16 -17 10 -15 98 4 264 58 678 123 1004 159 1031 111 2012 84 2905 -80
141 -26 409 -83 453 -96 9 -3 17 -1 17 5 0 12 -35 22 -234 66 -701 154 -1563
220 -2396 184z"/>
<path d="M1576 2028 c-24 -23 -25 -27 -59 -473 -21 -277 -30 -457 -25 -468 5
-9 40 -33 78 -52 168 -85 344 -86 516 -5 105 50 99 2 54 513 -22 246 -44 456
-49 466 -16 28 -42 34 -57 13 -7 -10 -41 -31 -75 -47 -91 -41 -171 -40 -263 3
-43 20 -70 39 -73 52 -7 26 -16 25 -47 -2z"/>
<path d="M7626 2028 c-24 -23 -25 -27 -59 -473 -21 -277 -30 -457 -25 -468 5
-9 40 -33 78 -52 168 -85 344 -86 516 -5 105 50 99 2 54 513 -22 246 -44 456
-49 466 -16 28 -42 34 -57 13 -7 -10 -41 -31 -75 -47 -91 -41 -171 -40 -263 3
-43 20 -70 39 -73 52 -7 26 -16 25 -47 -2z"/>
<path d="M4540 1879 c-369 -16 -771 -55 -1149 -110 -302 -44 -682 -116 -698
-132 -16 -17 10 -15 98 4 264 58 678 123 1004 159 1031 111 2012 84 2905 -80
141 -26 409 -83 453 -96 9 -3 17 -1 17 5 0 12 -35 22 -234 66 -701 154 -1563
220 -2396 184z"/>
</g>
</svg>
